<?xml version="1.0" encoding="UTF-8" standalone="no"?>
<svg
   xmlns:dc="http://purl.org/dc/elements/1.1/"
   xmlns:cc="http://creativecommons.org/ns#"
   xmlns:rdf="http://www.w3.org/1999/02/22-rdf-syntax-ns#"
   xmlns:svg="http://www.w3.org/2000/svg"
   xmlns="http://www.w3.org/2000/svg"
   xmlns:sodipodi="http://sodipodi.sourceforge.net/DTD/sodipodi-0.dtd"
   xmlns:inkscape="http://www.inkscape.org/namespaces/inkscape"
   version="1.1"
   id="svg2"
   xml:space="preserve"
   width="400"
   height="400"
   viewBox="0 0 400.00001 399.99999"
   sodipodi:docname="Mechanics-of-MobileCoin-v0-0-39-preview-10-11.svg"
   inkscape:version="1.0.2 (e86c870879, 2021-01-15)"><metadata
     id="metadata8"><rdf:RDF><cc:Work
         rdf:about=""><dc:format>image/svg+xml</dc:format><dc:type
           rdf:resource="http://purl.org/dc/dcmitype/StillImage" /><dc:title></dc:title></cc:Work></rdf:RDF></metadata><defs
     id="defs6"><clipPath
       clipPathUnits="userSpaceOnUse"
       id="clipPath24"><path
         d="M 0,0 H 340.158 V 340.158 H 0 Z"
         id="path22" /></clipPath><clipPath
       clipPathUnits="userSpaceOnUse"
       id="clipPath32"><path
         d="M 0,340.158 H 340.158 V 0 H 0 Z"
         id="path30" /></clipPath></defs><sodipodi:namedview
     pagecolor="#ffffff"
     bordercolor="#666666"
     borderopacity="1"
     objecttolerance="10"
     gridtolerance="10"
     guidetolerance="10"
     inkscape:pageopacity="0"
     inkscape:pageshadow="2"
     inkscape:window-width="1362"
     inkscape:window-height="725"
     id="namedview4"
     showgrid="false"
     fit-margin-top="0"
     fit-margin-left="0"
     fit-margin-right="0"
     fit-margin-bottom="0"
     inkscape:zoom="0.81766181"
     inkscape:cx="125.65629"
     inkscape:cy="233.29261"
     inkscape:window-x="0"
     inkscape:window-y="0"
     inkscape:window-maximized="1"
     inkscape:current-layer="g10"
     inkscape:document-rotation="0" /><g
     id="g10"
     inkscape:groupmode="layer"
     inkscape:label="Mechanics-of-MobileCoin-v0-0-39-preview-10-11"
     transform="matrix(1.3333333,0,0,-1.3333333,-1080.4345,651.63731)"><rect
       style="fill:#ffffff;stroke:#4b4b4b;stroke-width:0"
       id="rect2405"
       width="300"
       height="300"
       x="810.32593"
       y="-488.728"
       transform="scale(1,-1)" /><g
       id="g14"
       transform="matrix(0.83943389,0,0,0.83943116,817.556,195.95838)"><g
         id="g16"><g
           id="g18"><g
             id="g20"
             clip-path="url(#clipPath24)"><g
               id="g26"><g
                 id="g28"
                 clip-path="url(#clipPath32)"><g
                   id="g34"
                   transform="translate(244.4878,202.2275)"><path
                     d="m 0,0 c 0,-11.062 -8.967,-20.028 -20.028,-20.028 -6.586,0 -12.43,3.178 -16.08,8.085 h -166.518 c -1.034,-6.586 -1.571,-13.335 -1.571,-20.206 0,-71.566 58.222,-129.789 129.788,-129.789 52.409,0 97.662,31.225 118.134,76.047 h -153.308 c -3.623,-5.163 -9.62,-8.538 -16.405,-8.538 -11.064,0 -20.027,8.967 -20.027,20.03 0,11.061 8.963,20.028 20.027,20.028 6.383,0 12.069,-2.986 15.737,-7.639 v 0.006 H 51.914 c 2.266,9.589 3.465,19.584 3.465,29.855 0,71.566 -58.223,129.79 -129.788,129.79 -56.093,0 -103.99,-35.769 -122.077,-85.698 h -0.001 160.38 v 0 c 3.65,4.905 9.493,8.083 16.079,8.083 C -8.967,20.026 0,11.06 0,0 m -74.409,-185.824 c -84.737,0 -153.675,68.938 -153.675,153.675 0,84.737 68.938,153.676 153.675,153.676 84.736,0 153.675,-68.939 153.675,-153.676 0,-84.737 -68.939,-153.675 -153.675,-153.675"
                     style="fill:#100f0d;fill-opacity:1;fill-rule:nonzero;stroke:none"
                     id="path36" /></g></g></g></g></g></g></g></g></svg>
